<?xml version="1.0" encoding="UTF-8" standalone="no"?>
<!-- Created with Inkscape (http://www.inkscape.org/) -->

<svg
   width="43.189583"
   height="45.430138"
   viewBox="0 0 11.427244 12.020057"
   version="1.1"
   id="svg1"
   xmlns="http://www.w3.org/2000/svg"
   xmlns:svg="http://www.w3.org/2000/svg">
  <defs
     id="defs1" />
  <g
     id="layer1"
     transform="translate(-2.7057779,-2.7690547)">
    <path
       style="fill:#ffffff;fill-opacity:1;stroke:#000000;stroke-width:0.202;stroke-dasharray:none;stroke-opacity:1"
       d="m 4.2940659,5.6234024 c 0,0 -2.7961842,4.5211706 -0.3347716,7.2961386 2.4614123,2.774969 6.9120467,1.461455 7.0507117,1.435266 0.141723,-0.02677 3.194024,-1.050146 3.014428,-3.53609 C 13.819578,7.983128 12.658009,4.0591697 11.406466,3.4009639 9.7905397,2.5511234 7.1679818,2.7354094 5.8392923,3.8559381 5.118495,4.4638108 4.7271173,4.9387766 4.5170907,5.2418587 4.3470375,5.4872565 4.2958731,5.6149379 4.2850026,5.6489634 c -0.00181,0.00566 0.00906,-0.024526 0.00906,-0.024526 z"
       id="path1" />
    <path
       style="fill:#ffffff;fill-opacity:1;stroke:none;stroke-width:0.0677264;stroke-dasharray:none;stroke-opacity:1"
       d="M 2.7057779,4.6300834 2.8401718,4.3738932 2.88777,4.4480903 Z"
       id="path5" />
  </g>
  <g
     id="layer2"
     transform="translate(-2.7057779,-2.7690547)">
    <ellipse
       style="fill:#000000;fill-opacity:1;stroke:#000000;stroke-width:0.297076;stroke-dasharray:none;stroke-opacity:1"
       id="path2-3"
       cx="10.026449"
       cy="6.5939088"
       rx="0.13526337"
       ry="0.14757532" />
    <path
       style="fill:#ff7f2a;fill-opacity:1;stroke:none;stroke-width:0.110882;stroke-dasharray:none;stroke-opacity:1"
       d="m 6.9067151,7.6235965 c 0,0 -2.0293219,0.7603399 -2.2889983,1.2322745 -0.2596761,0.4719349 0.6251468,0.7341202 0.6251468,0.7341202 0,0 2.5198216,0.7603408 2.7314095,0.6642058 C 8.1858597,10.158062 9.3207429,9.3540245 8.984125,8.8034338 8.647508,8.2528432 8.0896847,7.4662849 7.57995,7.4925034 7.0702149,7.5187187 6.9067151,7.6235969 6.9067151,7.6235965 Z"
       id="path4" />
    <ellipse
       style="fill:#000000;fill-opacity:1;stroke:#000000;stroke-width:0.297076;stroke-dasharray:none;stroke-opacity:1"
       id="path2-3-1"
       cx="6.5168228"
       cy="6.590549"
       rx="0.13526337"
       ry="0.14757532" />
  </g>
</svg>
