<?xml version="1.0" encoding="UTF-8" standalone="no"?>
<!-- Created with Inkscape (http://www.inkscape.org/) -->
<!-- viewBox="0 0 507.99999 285.75" -->
<svg
   width="1920"
   height="1080"
   
   viewBox="0 28.575 507.99999 257.175"
   version="1.1"
   id="svg1"
   inkscape:version="1.3.2 (091e20e, 2023-11-25, custom)"
   sodipodi:docname="gooseBanner.svg"
   xmlns:inkscape="http://www.inkscape.org/namespaces/inkscape"
   xmlns:sodipodi="http://sodipodi.sourceforge.net/DTD/sodipodi-0.dtd"
   xmlns:xlink="http://www.w3.org/1999/xlink"
   xmlns="http://www.w3.org/2000/svg"
   xmlns:svg="http://www.w3.org/2000/svg">
  <sodipodi:namedview
     id="namedview1"
     pagecolor="#ffffff"
     bordercolor="#000000"
     borderopacity="0.25"
     inkscape:showpageshadow="2"
     inkscape:pageopacity="0.0"
     inkscape:pagecheckerboard="0"
     inkscape:deskcolor="#d1d1d1"
     inkscape:document-units="mm"
     inkscape:zoom="0.74583496"
     inkscape:cx="927.81921"
     inkscape:cy="498.76986"
     inkscape:window-width="2250"
     inkscape:window-height="1422"
     inkscape:window-x="-8"
     inkscape:window-y="-8"
     inkscape:window-maximized="1"
     inkscape:current-layer="layer2" />
  <defs
     id="defs1">
    <linearGradient
       id="linearGradient1"
       inkscape:collect="always">
      <stop
         style="stop-color:#d5fff6;stop-opacity:1;"
         offset="0"
         id="stop1" />
      <stop
         style="stop-color:#d5fff6;stop-opacity:0;"
         offset="1"
         id="stop2" />
    </linearGradient>
    <linearGradient
       inkscape:collect="always"
       xlink:href="#linearGradient1"
       id="linearGradient2"
       x1="244.22049"
       y1="154.9775"
       x2="268.90111"
       y2="154.9775"
       gradientUnits="userSpaceOnUse" />
  </defs>
  <g
     inkscape:label="Layer 1"
     inkscape:groupmode="layer"
     id="layer1" />
  <g
     inkscape:groupmode="layer"
     id="layer2"
     inkscape:label="Background">
    <rect
       style="fill:#aaeeff;stroke-width:0.605467;stroke-opacity:0.189655;fill-opacity:1"
       id="rect1"
       width="509.42233"
       height="288.32431"
       x="-1.0033784"
       y="-2.508446"
       rx="0.023386084"
       ry="0" />
    <rect
       style="fill:#deaa87;fill-opacity:1;stroke-width:0.873163;stroke-opacity:0.189655"
       id="rect15"
       width="512.97723"
       height="31.857264"
       x="-3.7626691"
       y="255.86148"
       rx="0.023386085"
       ry="0.023386082" />
    <text
       xml:space="preserve"
       style="font-style:normal;font-variant:normal;font-weight:normal;font-stretch:normal;font-size:35.2778px;font-family:Arial;-inkscape-font-specification:'Arial, Normal';font-variant-ligatures:normal;font-variant-caps:normal;font-variant-numeric:normal;font-variant-east-asian:normal;fill:url(#linearGradient2);stroke-width:0.602001;stroke-opacity:0.189655"
       x="243.31926"
       y="161.04224"
       id="text1"><tspan
         sodipodi:role="line"
         id="tspan1"
         style="font-style:normal;font-variant:normal;font-weight:normal;font-stretch:normal;font-size:35.2778px;font-family:Arial;-inkscape-font-specification:'Arial, Normal';font-variant-ligatures:normal;font-variant-caps:normal;font-variant-numeric:normal;font-variant-east-asian:normal;fill:#1ea600;fill-opacity:1;stroke-width:0.602"
         x="243.31926"
         y="161.04224" /></text>
    <path
       style="fill:#c87137;fill-opacity:1;stroke-width:0.602001;stroke-opacity:0.189655"
       d="m 35.535647,296.32571 c 0,0 7.804454,-31.57255 31.217809,-33.70104 23.413357,-2.12848 141.189644,-0.35475 141.189644,-0.35475 0,0 21.28486,-3.90222 10.28768,29.08932 -10.98803,32.96408 -101.10313,26.25135 -101.10313,26.25135 l -76.980281,-6.03072 -10.287685,-2.1285 z"
       id="path15"
       sodipodi:nodetypes="cscscccc" />
    <path
       style="fill:#c87137;fill-opacity:1;stroke-width:0.602001;stroke-opacity:0.189655"
       d="m 258.02692,298.46289 c 0,0 7.80445,-31.57255 31.21781,-33.70104 23.41336,-2.12848 141.18964,-0.35475 141.18964,-0.35475 0,0 21.28486,-3.90222 10.28768,29.08932 -10.98803,32.96408 -101.10313,26.25135 -101.10313,26.25135 l -76.98028,-6.03072 -10.28768,-2.1285 z"
       id="path15-8"
       sodipodi:nodetypes="cscscccc" />
    <ellipse
       style="fill:#502d16;fill-opacity:1;stroke-width:0.524004;stroke-opacity:0.189655"
       id="path16"
       cx="134.44942"
       cy="274.22006"
       rx="48.245705"
       ry="5.3212175" />
    <path
       style="display:none;fill:#ffffff;fill-opacity:1;stroke-width:0.602001;stroke-opacity:0.189655"
       d="m 185.88786,83.36574 c 0,0 15.25416,-1.773739 15.6089,-10.642435 0.35475,-8.868695 -3.94657,-37.038628 6.38547,-41.860244 10.64243,-4.966469 257.48153,-11.097368 272.09156,1.418992 9.99186,8.55999 12.06145,70.949567 -0.35473,76.270787 -13.05889,5.59667 -260.73965,2.48323 -272.44633,0 -10.3528,-2.19605 -21.28487,-25.1871 -21.28487,-25.1871 z"
       id="path26"
       sodipodi:nodetypes="csssssc" />
  </g>
  <g
     inkscape:groupmode="layer"
     id="layer5"
     inkscape:label="Arm">
    <path
       style="fill:#ffe6d5;fill-opacity:1;stroke-width:0.838141;stroke-opacity:0.189655"
       d="m -6.9274342,121.2494 43.0490562,-1.22395 v 44.06257 l -43.6469599,-0.40798 z"
       id="path7" />
    <path
       style="fill:#a05a2c;fill-opacity:1;stroke-width:0.866248;stroke-opacity:0.189655"
       d="m 18.244708,117.88436 c 0,0 -2.261545,48.68005 -0.08698,49.14813 2.174561,0.46807 107.142982,-12.68961 107.142982,-12.68961 l 0.21745,-34.92605 z"
       id="path8"
       sodipodi:nodetypes="csccc" />
    <path
       style="fill:#a05a2c;fill-opacity:1;stroke-width:0.616268;stroke-opacity:0.189655"
       d="m 135.33075,108.12326 1.38019,-1.38851 v 1.29594 z"
       id="path12" />
    <path
       style="fill:#a05a2c;fill-opacity:1;stroke-width:0.602001;stroke-opacity:0.189655"
       d="m 124.4876,154.43242 c 0,0 4.90667,1.92268 9.07496,0.32632 4.16828,-1.59637 9.4895,-4.0796 9.4895,-4.0796 l 3.19273,-33.08024 c 0,0 -12.85961,-0.88686 -13.21436,-0.44343 -0.35474,0.44343 -9.66687,7.98182 -9.66687,7.98182 z"
       id="path10"
       sodipodi:nodetypes="csccscc" />
    <path
       style="fill:#a05a2c;fill-opacity:1;stroke-width:0.602001;stroke-opacity:0.189655"
       d="m 166.89004,145.69368 c 0,0 0.45781,-0.76822 0.59891,-1.23855 0.1411,-0.47033 0.49854,-1.23855 0.49854,-1.23855 l -1.84998,0.81525 z"
       id="path21"
       sodipodi:nodetypes="csccc" />
    <path
       style="fill:#a05a2c;fill-opacity:1;stroke-width:0.602001;stroke-opacity:0.189655"
       d="m 165.80827,103.44204 0.12543,1.66184 3.79402,0.62712 c 0,0 -3.9508,-1.72456 -3.91945,-2.28896 z"
       id="path22" />
  </g>
  <g
     inkscape:groupmode="layer"
     id="layer3"
     inkscape:label="Goose">
    <path
       style="fill:#ff7f2a;fill-opacity:1;stroke-width:0.602001;stroke-opacity:0.189655"
       d="m 140.76969,206.92927 c 0,0 0.23025,27.21814 0.23025,28.99188 0,1.77374 1.45246,6.85218 2.54122,7.54649 0.77129,0.49185 1.52985,0.24389 1.52985,0.24389 l 0.60783,-0.58723 c 0,0 0.75606,-0.75253 0.22394,-2.88102 -0.53212,-2.12848 -0.0211,1.28125 1.67744,2.62769 1.12063,0.88835 3.73943,-0.38834 2.51998,-2.67203 -1.32103,-2.47392 2.1706,3.2652 2.99095,0.10682 0.8138,-3.13312 -2.57573,-5.364 -3.63998,-5.54137 -1.06424,-0.17737 -1.40915,-27.65772 -1.40915,-27.65772 0,0 -6.20808,0 -7.27233,-0.17737 z"
       id="path5"
       sodipodi:nodetypes="cssccsssssccc" />
    <path
       style="fill:#ffffff;fill-opacity:1;stroke-width:0.602001;stroke-opacity:0.189655"
       d="m 165.84952,76.514986 c 0,0 -3.72971,-13.088824 -13.92187,-10.911739 -9.23425,1.972472 -12.41681,5.644002 -13.92188,15.677786 -1.92094,12.806241 -1.00338,77.009287 -5.26773,82.026187 -4.19258,4.93245 -38.379229,11.78969 -44.148659,7.52533 -5.769418,-4.26436 -20.820088,-6.52196 -13.545598,7.77618 7.27449,14.29815 1.00338,35.36909 46.155397,35.61994 45.15203,0.25084 46.40625,-32.86065 46.40625,-32.86065 z"
       id="path2"
       sodipodi:nodetypes="csssssscc" />
    <path
       style="fill:#ff7f2a;fill-opacity:1;stroke-width:0.602001;stroke-opacity:0.189655"
       d="m 130.84511,210.34116 c 0,0 0.79465,27.15543 0.79465,28.92917 0,1.77374 1.45246,6.85218 2.54122,7.54649 0.77129,0.49185 1.52985,0.24389 1.52985,0.24389 l 0.60783,-0.58723 c 0,0 0.75606,-0.75253 0.22394,-2.88102 -0.53212,-2.12848 -0.0211,1.28125 1.67744,2.62769 1.12063,0.88835 3.73943,-0.38834 2.51998,-2.67203 -1.32103,-2.47392 2.1706,3.2652 2.99095,0.10682 0.8138,-3.13312 -2.57573,-5.364 -3.63998,-5.54137 -1.06424,-0.17737 -2.13033,-31.26361 -2.13033,-31.26361 -1.56871,-10.98098 -8.19762,-2.43251 -7.11555,-0.94312 z"
       id="path5-3"
       sodipodi:nodetypes="cssccsssssccc" />
    <path
       style="fill:#ff7f2a;fill-opacity:1;stroke-width:0.690129;stroke-opacity:0.189655"
       d="m 158.19876,82.386317 c 0,0 3.27404,-4.802743 6.39725,-4.802743 3.12321,0 9.96069,1.538667 8.45977,3.728976 -1.69644,2.475636 -6.23166,3.636849 -9.35487,3.491223 -3.12321,-0.145624 -5.50215,-2.417456 -5.50215,-2.417456 z"
       id="path3"
       sodipodi:nodetypes="csssc" />
    <ellipse
       style="fill:#000000;fill-opacity:1;stroke-width:0.789081;stroke-opacity:0.189655"
       id="path4"
       cx="154.67126"
       cy="77.251839"
       rx="1.4266788"
       ry="1.3639674" />
    <g
       inkscape:groupmode="layer"
       id="layer4"
       inkscape:label="GameName">
      <path
         style="fill:#87de87;fill-opacity:1;stroke-width:2.3174;stroke-opacity:0.189655"
         d="m 336.11915,237.17675 c 0,0 5.12378,0.7221 9.29031,4.18684 3.63491,3.02273 6.64131,11.89427 6.64131,11.89427 0,0 7.16534,-9.82096 12.83231,-11.055 5.66693,-1.23406 6.94418,-1.71168 11.57071,-3.72344 1.20423,-0.52363 -1.53881,18.71386 -10.32271,22.00466 -8.78374,3.29079 -12.37475,2.24853 -12.37475,2.24853 l -0.26256,11.37101 c 0,0 -4.62266,1.34188 -6.1044,0.0477 -2.50739,-2.19 -1.15674,-12.40201 -1.15674,-12.40201 0,0 -6.02105,-0.90368 -9.48818,-4.30456 -4.60995,-4.52186 -5.65467,-21.5021 -5.65467,-21.5021 z"
         id="path6"
         sodipodi:nodetypes="cscsssccscscc" />
    </g>
  </g>
  <g
     inkscape:groupmode="layer"
     id="layer8"
     inkscape:label="Mango">
    <path
       style="fill:#ff9f00;fill-opacity:1;stroke-width:0.602001;stroke-opacity:0.189655"
       d="m 151.16952,52.052863 c 0,0 -15.29153,-5.389466 -11.27801,8.908675 4.01351,14.298142 17.70237,12.737431 21.33961,11.232363 3.31461,-1.371562 6.27112,-4.515201 5.64401,-8.403294 -0.70609,-4.377771 -6.21025,-2.899356 -9.03041,-5.894846 -3.05579,-3.245766 -6.6752,-5.842898 -6.6752,-5.842898 z"
       id="path23"
       sodipodi:nodetypes="cssssc" />
    <path
       style="fill:#aad400;fill-opacity:1;stroke-width:0.602001;stroke-opacity:0.189655"
       d="m 141.23398,52.0149 c 0,0 -3.63617,0.997728 -3.41445,4.45652 0.22172,3.458789 0.74242,4.444993 0.74242,4.444993 0,0 2.69883,-2.754305 3.30544,-3.416293 0.90863,-0.99157 0.0539,-4.797898 -0.38952,-5.285676 -0.44343,-0.487778 -0.24389,-0.199544 -0.24389,-0.199544 z"
       id="path25"
       sodipodi:nodetypes="cscssc" />
    <path
       style="fill:#c87137;fill-opacity:1;stroke-width:0.602001;stroke-opacity:0.189655"
       d="m 141.41135,52.192274 c 0,0 -1.41899,-1.906771 -1.24161,-2.217175 0.17737,-0.310404 1.46333,-0.798182 1.6407,-0.554292 0.17738,0.243888 0.93121,2.261517 0.93121,2.261517 0,0 -1.13076,0.864698 -1.3303,0.50995 z"
       id="path24"
       sodipodi:nodetypes="csscc" />
  </g>
  <g
     inkscape:groupmode="layer"
     id="layer6"
     inkscape:label="Hand">
    <path
       style="fill:#a05a2c;fill-opacity:1;stroke-width:0.602001;stroke-opacity:0.189655"
       d="m 117.24415,119.19527 c 0,0 15.70205,-10.29844 17.83054,-11.00794 2.12849,-0.70949 9.48505,-0.47703 11.08142,-0.47703 1.59636,0 8.67164,4.74476 9.55851,5.45426 0.88687,0.70949 1.7328,2.83115 -1.17738,4.85981 -2.96341,2.06577 -7.09681,0.0458 -7.09681,0.0458 -1.50995,-0.62524 -0.5291,-0.21044 -1.68657,-0.71583 -1.23803,-0.54056 -5.89008,1.30878 -9.26018,1.30878 -3.3701,0 -13.04144,7.27233 -13.04144,7.27233 l -6.20809,0.70949 z"
       id="path9"
       sodipodi:nodetypes="csssscssccc" />
    <path
       style="fill:#a05a2c;fill-opacity:1;stroke-width:0.602001;stroke-opacity:0.189655"
       d="m 165.06023,105.06652 c 0,0 1.62297,-0.91081 1.98317,-0.6374 0.36021,0.2734 3.71444,1.25667 3.81506,2.58316 0.10382,1.36859 -0.37583,5.20049 -0.37583,5.20049 0,0 -4.12883,4.75953 -5.17521,5.61623 -0.83762,0.6858 -4.05518,3.46379 -6.4979,3.28932 -5.4278,-0.3877 -6.01601,-1.68138 -5.43496,-4.60571 0.66245,-3.33398 6.97003,-4.69536 7.37321,-5.59848 0.33625,-0.75319 1.96267,-2.69239 2.18693,-3.14117 0.3129,-0.62617 2.1255,-2.70644 2.1255,-2.70644 z"
       id="path17"
       sodipodi:nodetypes="csscssssscc" />
    <path
       style="fill:#a05a2c;fill-opacity:1;stroke-width:0.602001;stroke-opacity:0.189655"
       d="m 168.67251,112.65517 c 0,0 1.98681,-0.51498 2.48691,0.91561 0.50008,1.4306 1.08142,5.67954 0.0819,7.43763 -1.49804,2.63489 -6.80994,6.15912 -8.25016,7.42048 -0.97304,0.8522 -5.49676,0.9304 -8.6942,0.89272 -2.5018,-0.0295 -3.66471,-0.59134 -4.028,-3.92537 -0.19309,-1.77209 8.48659,-4.12626 9.01531,-4.46348 0.90986,-0.58031 3.04267,-1.61341 3.42828,-3.08971 0.3856,-1.4763 5.70916,-5.81499 5.70916,-5.81499 z"
       id="path18"
       sodipodi:nodetypes="cssssssscc" />
    <path
       style="fill:#a05a2c;fill-opacity:1;stroke-width:0.62112;stroke-opacity:0.189655"
       d="m 166.98226,135.83281 c 0,0 -1.70372,-0.35122 -6.49811,2.10896 -4.62336,2.37243 -9.21478,5.60714 -6.02577,8.47875 2.11263,1.90237 3.5619,-0.24804 6.33473,-0.50169 2.77283,-0.25364 5.69438,-1.78815 5.69438,-1.78815 0,0 4.03367,-1.34918 3.28745,-5.57887 -0.60392,-3.42312 -2.79268,-2.719 -2.79268,-2.719 z"
       id="path19"
       sodipodi:nodetypes="cssscsc" />
    <path
       style="fill:#a05a2c;fill-opacity:1;stroke-width:0.602001;stroke-opacity:0.189655"
       d="m 168.19129,123.97994 c 0,0 -2.30303,2.20173 -6.02026,4.95418 -4.10759,3.0415 -6.80417,2.00675 -7.80754,2.79064 -0.93242,0.72845 -2.46844,2.08139 -2.16353,3.41776 0.39946,1.75078 2.38301,3.35505 6.2084,2.822 3.65348,-0.5091 9.78294,-0.75253 10.66089,-3.13555 0.87796,-2.38303 2.63387,-7.02365 1.12881,-8.65414 -1.50507,-1.63049 -2.00677,-2.19489 -2.00677,-2.19489 z"
       id="path20"
       sodipodi:nodetypes="cssssssc" />
  </g>
  <g
     inkscape:groupmode="layer"
     id="layer7"
     inkscape:label="Goose2"
     style="display:inline">
    <text
       xml:space="preserve"
       style="font-style:normal;font-variant:normal;font-weight:normal;font-stretch:normal;font-size:35.2777px;font-family:'OCR-A BT';-inkscape-font-specification:'OCR-A BT, Normal';font-variant-ligatures:normal;font-variant-caps:normal;font-variant-numeric:normal;font-variant-east-asian:normal;display:none;fill:#a05a2c;fill-opacity:1;stroke-width:0.602001;stroke-opacity:0.189655"
       x="222.16225"
       y="81.7901"
       id="text22"><tspan
         sodipodi:role="line"
         id="tspan22"
         style="font-style:normal;font-variant:normal;font-weight:normal;font-stretch:normal;font-size:35.2777px;font-family:'OCR-A BT';-inkscape-font-specification:'OCR-A BT, Normal';font-variant-ligatures:normal;font-variant-caps:normal;font-variant-numeric:normal;font-variant-east-asian:normal;stroke-width:0.602"
         x="222.16225"
         y="81.7901">GOOSE FARMER</tspan></text>
  </g>
</svg>
