<?xml version="1.0" encoding="UTF-8" standalone="no"?>
<!-- Created with Inkscape (http://www.inkscape.org/) -->

<svg
   width="1080"
   height="1920"
   viewBox="0 0 285.74999 508"
   version="1.1"
   id="svg1"
   inkscape:export-filename="gooseBannerMobile.svg"
   inkscape:export-xdpi="125.26557"
   inkscape:export-ydpi="125.26557"
   xmlns:inkscape="http://www.inkscape.org/namespaces/inkscape"
   xmlns:sodipodi="http://sodipodi.sourceforge.net/DTD/sodipodi-0.dtd"
   xmlns="http://www.w3.org/2000/svg"
   xmlns:svg="http://www.w3.org/2000/svg">
  <sodipodi:namedview
     id="namedview1"
     pagecolor="#ffffff"
     bordercolor="#000000"
     borderopacity="0.25"
     inkscape:showpageshadow="2"
     inkscape:pageopacity="0.0"
     inkscape:pagecheckerboard="0"
     inkscape:deskcolor="#d1d1d1"
     inkscape:document-units="mm"
     inkscape:export-bgcolor="#aaeeffff" />
  <defs
     id="defs1" />
  <g
     inkscape:label="Layer 1"
     inkscape:groupmode="layer"
     id="layer1">
    <rect
       style="display:inline;fill:#aaeeff;fill-opacity:1;stroke-width:0.755329;stroke-opacity:0.189655"
       id="rect1-8"
       width="494.87335"
       height="461.90878"
       x="-133.91954"
       y="-7.6720142"
       rx="0.023386084"
       ry="0.023386084" />
    <rect
       style="display:inline;fill:#deaa87;fill-opacity:1;stroke-width:1.37794;stroke-opacity:0.189655"
       id="rect15-8"
       width="520.50256"
       height="78.190933"
       x="-89.322365"
       y="435.67444"
       rx="0.023386085"
       ry="0.023386082" />
    <path
       style="display:inline;fill:#c87137;fill-opacity:1;stroke-width:0.861857;stroke-opacity:0.189655"
       d="m -11.09224,496.93939 c 0,0 10.81197712,-46.71138 43.247927,-49.86046 32.435934,-3.14907 195.598573,-0.52485 195.598573,-0.52485 0,0 29.48721,-5.77331 14.25215,43.03745 -15.22238,48.77013 -140.0643,38.83869 -140.0643,38.83869 l -106.6454549,-8.92241 -14.2521611,-3.1491 z"
       id="path15-5"
       sodipodi:nodetypes="cscscccc" />
    <ellipse
       style="display:inline;fill:#502d16;fill-opacity:1;stroke-width:0.632575;stroke-opacity:0.189655"
       id="path16-5"
       cx="63.867538"
       cy="470.53238"
       rx="47.522667"
       ry="7.872705" />
    <path
       style="display:inline;fill:#a05a2c;fill-opacity:1;stroke-width:1.24017;stroke-opacity:0.189655"
       d="m -105.9964,189.22218 c 0,0 -3.13306,72.0218 -0.12053,72.71432 3.01255,0.69251 148.431667,-18.77419 148.431667,-18.77419 l 0.301274,-51.67285 z"
       id="path8-5"
       sodipodi:nodetypes="csccc" />
    <path
       style="display:inline;fill:#a05a2c;fill-opacity:1;stroke-width:0.882282;stroke-opacity:0.189655"
       d="m 57.312136,174.71702 1.912061,-2.05429 v 1.91733 z"
       id="path12-6" />
    <path
       style="display:inline;fill:#a05a2c;fill-opacity:1;stroke-width:0.861857;stroke-opacity:0.189655"
       d="m 42.290462,243.23112 c 0,0 6.797508,2.8446 12.572093,0.48279 5.774571,-2.36182 13.14638,-6.03574 13.14638,-6.03574 l 4.423083,-48.94199 c 0,0 -17.815198,-1.3121 -18.306655,-0.65605 -0.491443,0.65605 -13.392102,11.80905 -13.392102,11.80905 z"
       id="path10-4"
       sodipodi:nodetypes="csccscc" />
    <path
       style="display:inline;fill:#a05a2c;fill-opacity:1;stroke-width:0.861857;stroke-opacity:0.189655"
       d="m 101.03314,230.30222 c 0,0 0.63424,-1.13658 0.82971,-1.83243 0.19548,-0.69585 0.69066,-1.83243 0.69066,-1.83243 l -2.562896,1.20616 z"
       id="path21-7"
       sodipodi:nodetypes="csccc" />
    <path
       style="display:inline;fill:#a05a2c;fill-opacity:1;stroke-width:0.861857;stroke-opacity:0.189655"
       d="m 99.534494,167.79118 0.17377,2.45869 5.256096,0.92782 c 0,0 -5.473296,-2.55148 -5.429866,-3.38651 z"
       id="path22-9" />
    <path
       style="display:inline;fill:#ff7f2a;fill-opacity:1;stroke-width:0.861857;stroke-opacity:0.189655"
       d="m 64.84703,320.89986 c 0,0 0.318979,40.26903 0.318979,42.89327 0,2.62424 2.012181,10.13775 3.520506,11.16498 1.068515,0.72769 2.119394,0.36084 2.119394,0.36084 l 0.842064,-0.86881 c 0,0 1.047416,-1.11336 0.310238,-4.26245 -0.737179,-3.14907 -0.02923,1.8956 2.323861,3.88765 1.55247,1.31431 5.18046,-0.57454 3.49108,-3.95325 -1.8301,-3.66015 3.00706,4.83084 4.14354,0.15804 1.12741,-4.63543 -3.56831,-7.936 -5.04268,-8.19842 -1.47436,-0.26242 -1.95218,-40.91939 -1.95218,-40.91939 0,0 -8.600432,0 -10.074802,-0.26242 z"
       id="path5-0"
       sodipodi:nodetypes="cssccsssssccc" />
    <path
       style="display:inline;fill:#ffffff;fill-opacity:1;stroke-width:0.861857;stroke-opacity:0.189655"
       d="m 99.591644,127.9528 c 0,0 -5.167002,-19.36482 -19.286812,-16.14385 -12.79277,2.91826 -17.201764,8.35026 -19.286829,23.19519 -2.661194,18.94674 -1.390043,113.93472 -7.297706,121.35719 -5.808235,7.29753 -53.16907603,17.44277 -61.161817,11.13367 -7.992728,-6.30909 -28.843334,-9.64919 -18.765542,11.50481 10.077792,21.15402 1.390043,52.32831 63.941876,52.69944 62.551846,0.37112 64.289406,-48.61709 64.289406,-48.61709 z"
       id="path2-4"
       sodipodi:nodetypes="csssssscc" />
    <path
       style="display:inline;fill:#ff7f2a;fill-opacity:1;stroke-width:0.861857;stroke-opacity:0.189655"
       d="m 51.097907,325.94771 c 0,0 1.100876,40.17627 1.100876,42.80051 0,2.62424 2.012181,10.13775 3.520507,11.16498 1.068515,0.72769 2.119394,0.36083 2.119394,0.36083 l 0.842064,-0.8688 c 0,0 1.047415,-1.11336 0.310237,-4.26245 -0.737178,-3.14907 -0.02923,1.8956 2.32386,3.88765 1.552476,1.31431 5.180459,-0.57454 3.491081,-3.95325 -1.830103,-3.66015 3.007064,4.83084 4.143544,0.15804 1.127407,-4.63543 -3.568315,-7.936 -5.042685,-8.19842 -1.474356,-0.26242 -2.951275,-46.25428 -2.951275,-46.25428 -2.173229,-16.24629 -11.356661,-3.59888 -9.857603,-1.39534 z"
       id="path5-3-6"
       sodipodi:nodetypes="cssccsssssccc" />
    <path
       style="display:inline;fill:#ff7f2a;fill-opacity:1;stroke-width:0.988026;stroke-opacity:0.189655"
       d="m 88.992582,136.63939 c 0,0 4.53572,-7.10562 8.862502,-7.10562 4.326776,0 13.799146,2.27644 11.719836,5.51699 -2.35018,3.66269 -8.63311,5.38069 -12.959878,5.16525 -4.32677,-0.21546 -7.62246,-3.57662 -7.62246,-3.57662 z"
       id="path3-3"
       sodipodi:nodetypes="csssc" />
    <ellipse
       style="display:inline;fill:#000000;fill-opacity:1;stroke-width:1.12969;stroke-opacity:0.189655"
       id="path4-1"
       cx="84.105728"
       cy="129.04298"
       rx="1.9764646"
       ry="2.0179806" />
    <path
       style="display:inline;fill:#87de87;fill-opacity:1;stroke-width:3.31771;stroke-opacity:0.189655"
       d="m 171.97594,418.21237 c 0,0 7.09828,1.06834 12.87043,6.1944 5.03566,4.47211 9.20061,17.59749 9.20061,17.59749 0,0 9.92658,-14.53004 17.77737,-16.3558 7.85075,-1.82578 9.6202,-2.53242 16.02961,-5.5088 1.66829,-0.77471 -2.13181,27.68703 -14.30068,32.55574 -12.16864,4.8687 -17.14349,3.32669 -17.14349,3.32669 l -0.36374,16.82333 c 0,0 -6.40405,1.9853 -8.45679,0.0706 -3.47364,-3.24009 -1.60251,-18.34869 -1.60251,-18.34869 0,0 -8.34132,-1.33699 -13.14455,-6.36857 -6.38644,-6.69006 -7.83376,-31.81221 -7.83376,-31.81221 z"
       id="path6-0"
       sodipodi:nodetypes="cscsssccscscc" />
    <path
       style="display:inline;fill:#ff9f00;fill-opacity:1;stroke-width:0.861857;stroke-opacity:0.189655"
       d="m 79.254542,91.761265 c 0,0 -21.184281,-7.97369 -15.624109,13.180315 5.560159,21.154 24.524169,18.84494 29.563059,16.6182 4.591932,-2.02922 8.687768,-6.68021 7.818998,-12.43261 -0.9782,-6.47689 -8.603448,-4.28959 -12.510388,-8.72139 -4.23337,-4.802079 -9.24756,-8.644515 -9.24756,-8.644515 z"
       id="path23-6"
       sodipodi:nodetypes="cssssc" />
    <path
       style="display:inline;fill:#aad400;fill-opacity:1;stroke-width:0.861857;stroke-opacity:0.189655"
       d="m 65.490239,91.705085 c 0,0 -5.037407,1.47614 -4.730245,6.593386 0.307162,5.117259 1.028519,6.576349 1.028519,6.576349 0,0 3.738853,-4.07498 4.579227,-5.054389 1.25878,-1.46702 0.07467,-7.098446 -0.539626,-7.820106 -0.61431,-0.72167 -0.337875,-0.29524 -0.337875,-0.29524 z"
       id="path25-6"
       sodipodi:nodetypes="cscssc" />
    <path
       style="display:inline;fill:#c87137;fill-opacity:1;stroke-width:0.861857;stroke-opacity:0.189655"
       d="m 65.73596,91.967525 c 0,0 -1.965813,-2.82106 -1.720078,-3.28031 0.245722,-0.45923 2.02724,-1.1809 2.272962,-0.82007 0.245735,0.36084 1.290061,3.34591 1.290061,3.34591 0,0 -1.56651,1.27932 -1.842945,0.75447 z"
       id="path24-1"
       sodipodi:nodetypes="csscc" />
    <path
       style="display:inline;fill:#a05a2c;fill-opacity:1;stroke-width:0.861857;stroke-opacity:0.189655"
       d="m 32.255671,191.098 c 0,0 21.753003,-15.23649 24.701729,-16.28619 2.948727,-1.04968 13.140216,-0.70576 15.351764,-0.70576 2.211538,0 12.013348,7.01985 13.241988,8.06955 1.22863,1.04969 2.40055,4.18867 -1.6311,7.19006 -4.10539,3.05629 -9.83164,0.0678 -9.83164,0.0678 -2.091827,-0.92504 -0.732996,-0.31134 -2.336509,-1.05906 -1.715118,-0.79976 -8.159886,1.93633 -12.82869,1.93633 -4.668804,0 -18.067098,10.75936 -18.067098,10.75936 l -8.600444,1.04969 z"
       id="path9-4"
       sodipodi:nodetypes="csssscssccc" />
    <path
       style="display:inline;fill:#a05a2c;fill-opacity:1;stroke-width:0.861857;stroke-opacity:0.189655"
       d="m 98.498194,170.19459 c 0,0 2.248396,-1.34754 2.747406,-0.94303 0.49902,0.4045 5.14584,1.85924 5.28524,3.82177 0.14383,2.02482 -0.52066,7.69411 -0.52066,7.69411 0,0 -5.71993,7.04169 -7.169536,8.30917 -1.16041,1.01464 -5.617892,5.12466 -9.001942,4.86653 -7.51946,-0.5736 -8.33434,-2.48759 -7.52938,-6.81412 0.91773,-4.9326 9.656,-6.94675 10.21455,-8.28291 0.46583,-1.11436 2.71901,-3.98339 3.02969,-4.64736 0.43348,-0.92641 2.944592,-4.00416 2.944592,-4.00416 z"
       id="path17-6"
       sodipodi:nodetypes="csscssssscc" />
    <path
       style="display:inline;fill:#a05a2c;fill-opacity:1;stroke-width:0.861857;stroke-opacity:0.189655"
       d="m 103.50251,181.42197 c 0,0 2.75245,-0.76191 3.44527,1.35463 0.69279,2.11657 1.49815,8.40285 0.11346,11.00393 -2.07533,3.8983 -9.434236,9.11237 -11.429458,10.97855 -1.34801,1.26082 -7.615,1.37652 -12.0446,1.32077 -3.4659,-0.0436 -5.07695,-0.87488 -5.58024,-5.80756 -0.2675,-2.62179 11.75699,-6.10477 12.48946,-6.60369 1.26048,-0.85856 4.21519,-2.38703 4.7494,-4.5712 0.5342,-2.18418 7.909258,-8.60324 7.909258,-8.60324 z"
       id="path18-2"
       sodipodi:nodetypes="cssssssscc" />
    <path
       style="display:inline;fill:#a05a2c;fill-opacity:1;stroke-width:0.889229;stroke-opacity:0.189655"
       d="m 101.1609,215.71313 c 0,0 -2.360266,-0.51963 -9.002228,3.12019 -6.40503,3.50999 -12.7658,8.29572 -8.34787,12.54425 2.92675,2.81455 4.93452,-0.36697 8.77589,-0.74225 3.84137,-0.37525 7.888768,-2.64555 7.888768,-2.64555 0,0 5.5881,-1.9961 4.55431,-8.2539 -0.83665,-5.06448 -3.86887,-4.02274 -3.86887,-4.02274 z"
       id="path19-6"
       sodipodi:nodetypes="cssscsc" />
    <path
       style="display:inline;fill:#a05a2c;fill-opacity:1;stroke-width:0.861857;stroke-opacity:0.189655"
       d="m 102.83585,198.17689 c 0,0 -3.190536,3.25744 -8.340248,7.32967 -5.69049,4.49988 -9.42623,2.96897 -10.81626,4.12873 -1.29173,1.07774 -3.41968,3.07941 -2.99727,5.05656 0.5534,2.59026 3.30133,4.96377 8.60088,4.17513 5.06138,-0.75321 13.552908,-1.11337 14.769188,-4.63903 1.21629,-3.52567 3.64886,-10.39144 1.56381,-12.80374 -2.08507,-2.4123 -2.7801,-3.24732 -2.7801,-3.24732 z"
       id="path20-7"
       sodipodi:nodetypes="cssssssc" />
  </g>
</svg>
