<?xml version="1.0" encoding="UTF-8" standalone="no"?>
<!-- Created with Inkscape (http://www.inkscape.org/) -->

<svg
   width="152"
   height="152"
   viewBox="0 0 40.216667 40.216667"
   version="1.1"
   id="svg1"
   sodipodi:docname="gooseCarrot.svg"
   inkscape:version="1.3.2 (091e20e, 2023-11-25, custom)"
   xmlns:inkscape="http://www.inkscape.org/namespaces/inkscape"
   xmlns:sodipodi="http://sodipodi.sourceforge.net/DTD/sodipodi-0.dtd"
   xmlns="http://www.w3.org/2000/svg"
   xmlns:svg="http://www.w3.org/2000/svg">
  <sodipodi:namedview
     id="namedview1"
     pagecolor="#ffffff"
     bordercolor="#000000"
     borderopacity="0.25"
     inkscape:showpageshadow="2"
     inkscape:pageopacity="0.0"
     inkscape:pagecheckerboard="0"
     inkscape:deskcolor="#d1d1d1"
     inkscape:document-units="mm"
     inkscape:zoom="5.570207"
     inkscape:cx="78.363336"
     inkscape:cy="78.18381"
     inkscape:window-width="1587"
     inkscape:window-height="1413"
     inkscape:window-x="619"
     inkscape:window-y="0"
     inkscape:window-maximized="0"
     inkscape:current-layer="layer1" />
  <defs
     id="defs1" />
  <g
     inkscape:label="Layer 1"
     inkscape:groupmode="layer"
     id="layer1">
    <rect
       style="fill:#f4eed7;stroke-width:0.602001;stroke-opacity:0.189655"
       id="rect1"
       width="40.600109"
       height="41.977245"
       x="-0.34147391"
       y="-0.23946367"
       rx="0.023386084"
       ry="0.023386084" />
  </g>
  <g
     inkscape:groupmode="layer"
     id="layer9"
     inkscape:label="geese">
    <path
       style="fill:#c87137;stroke-width:0.622381;stroke-opacity:0.189655"
       d="m 12.475642,20.674811 -0.290693,3.776567 c 0,0 0.10901,0.861323 0.181683,1.126345 0.07267,0.265023 1.090097,-0.530045 1.453463,-0.29815 0.363366,0.231895 -0.657467,-0.899468 0.109009,-0.563173 0.163769,0.07186 -1.416384,-0.518776 -1.235443,-0.463789 l 0.327029,-3.610928 -0.508712,-0.165639 z"
       id="path6-4"
       sodipodi:nodetypes="ccssscccc" />
    <path
       style="fill:#ffffff;stroke-width:0.602001;stroke-opacity:0.189655"
       d="m 31.647418,23.688562 c 0,0 -0.720685,-0.626682 -1.316032,-0.783352 -0.595347,-0.156671 0.07487,-0.76917 -0.658012,-1.535369 -0.689349,-0.720685 -1.128026,-0.908689 -2.350055,-0.219339 -1.287328,0.726185 -3.885425,-2.91407 -3.885425,-2.91407 0,0 -1.128027,-2.632062 -2.412724,-3.133407 C 19.740468,14.60168 12.752969,9.3062207 8.3348644,13.91233 c -4.4181048,4.606109 -4.5434411,4.574775 -4.5434411,4.574775 0,0 3.5407507,3.008072 8.5228687,2.757399 4.982118,-0.250673 5.546132,-0.814686 5.546132,-0.814686 0,0 1.786042,0.219338 2.412723,-0.156671 0.626682,-0.376009 2.600729,0.814687 3.352747,1.566704 0.752017,0.752018 2.945403,1.504036 2.945403,1.504036 0,0 1.84871,0.84602 2.882734,0.783351 1.034026,-0.06267 3.196076,0.438678 1.974047,-0.06267 -1.222028,-0.501346 -1.378698,-0.53268 -1.378698,-0.53268 0,0 1.219404,0.327122 1.438741,0.23312 0.21934,-0.094 0.159299,-0.07645 0.159299,-0.07645 z"
       id="path1"
       sodipodi:nodetypes="cssscsscscsscsscscc" />
    <ellipse
       style="fill:#000000;stroke-width:1.58514;stroke-opacity:0.189655"
       id="path2"
       cx="28.974356"
       cy="22.142689"
       rx="0.12526326"
       ry="0.11562762" />
    <path
       style="fill:#abc837;stroke-width:0.602001;stroke-opacity:0.189655"
       d="m 32.163233,25.947367 c -1.371473,-6.43707 -2.12357,-6.879481 -2.12357,-6.879481 0,0 -0.132723,-0.530892 0.37605,0 0.50877,0.530893 2.035088,6.636156 1.968725,6.81312 -0.06636,0.176964 -0.221205,0.06636 -0.221205,0.06636 z"
       id="path8" />
    <path
       style="fill:#abc837;stroke-width:0.602001;stroke-opacity:0.189655"
       d="m 32.387203,27.07582 c 0.856906,-6.525528 0.295728,-7.193702 0.295728,-7.193702 0,0 0.05219,-0.544737 0.354461,0.125581 0.302272,0.670318 -0.297872,6.934798 -0.419522,7.079441 -0.121647,0.144644 -0.230667,-0.01132 -0.230667,-0.01132 z"
       id="path8-7" />
    <path
       style="fill:#ff6600;stroke-width:0.602001;stroke-opacity:0.189655"
       d="m 30.438592,22.90499 c -0.684127,0.327612 -1.493766,0.380321 -1.194817,0.732309 0.289114,0.340408 0.873123,0.51503 1.242998,0.558867 0.366744,0.04347 1.239908,0.21563 1.326852,0.04617 0.106481,-0.207534 -2.521673,-0.701393 -2.521673,-0.701393 0,0 2.243971,0.591081 2.721026,0.38401 0.0096,-0.125263 -0.543372,-0.605629 -1.12151,-0.836885 -0.578136,-0.231255 -0.452876,-0.183077 -0.452876,-0.183078 z"
       id="path3"
       sodipodi:nodetypes="csssccsc" />
    <path
       style="fill:#c87137;stroke-width:0.719288;stroke-opacity:0.189655"
       d="m 9.2060433,20.482696 -0.3129134,4.685969 c 0,0 0.1173426,1.06873 0.195571,1.397569 0.078228,0.328842 1.1734241,-0.65768 1.5645661,-0.369944 0.391142,0.287736 -0.707723,-1.116061 0.117343,-0.698786 0.176287,0.08916 -1.5246537,-0.643698 -1.3298816,-0.57547 L 9.7927556,20.44159 9.2451575,20.236065 Z"
       id="path6"
       sodipodi:nodetypes="ccssscccc" />
  </g>
  <g
     inkscape:groupmode="layer"
     id="layer10"
     inkscape:label="hat">
    <ellipse
       style="fill:#c87137;stroke-width:0.648563;stroke-opacity:0.189655"
       id="path4"
       cx="34.066509"
       cy="13.082935"
       rx="3.0336807"
       ry="0.50153595"
       transform="matrix(0.96727156,0.25374346,-0.30251829,0.95314357,0,0)" />
    <ellipse
       style="fill:#c87137;stroke-width:0.67547;stroke-opacity:0.189655"
       id="path5"
       cx="27.271404"
       cy="22.844625"
       rx="1.4848648"
       ry="1.1490239"
       transform="matrix(0.99650524,-0.08353026,0.09493769,0.99548322,0,0)" />
  </g>
  <path
     style="fill:#abc837;stroke-width:0.523427;stroke-opacity:0.189655"
     d="m 32.337911,26.319169 c -0.07173,-5.211698 -0.692324,-5.672624 -0.692324,-5.672624 0,0 -0.02427,-0.432894 0.351941,0.05872 0.37621,0.491622 0.655322,5.469898 0.559899,5.596924 -0.09542,0.127025 -0.219516,0.01698 -0.219516,0.01698 z"
     id="path8-7-5" />
  <g
     inkscape:groupmode="layer"
     id="layer11"
     inkscape:label="carrot">
    <path
       style="fill:#abc837;stroke-width:0.523427;stroke-opacity:0.189655"
       d="m 34.4165,21.073033 c -1.888411,4.85807 -1.486023,5.518126 -1.486023,5.518126 0,0 -0.13988,0.41039 -0.304218,-0.186445 -0.164334,-0.596843 1.444281,-5.316323 1.580384,-5.398281 0.1361,-0.08196 0.209857,0.0666 0.209857,0.0666 z"
       id="path8-7-5-1" />
    <path
       style="fill:#d45500;stroke-width:0.602001;stroke-opacity:0.189655"
       d="m 31.477497,26.08009 c 0.398169,2.897788 0.597252,4.424104 0.995424,3.937453 0.398168,-0.486654 1.150265,-3.716248 0.92906,-3.937453 -0.221205,-0.221206 -1.150265,-0.884821 -1.924484,0 z"
       id="path7" />
  </g>
</svg>
